<svg xmlns="http://www.w3.org/2000/svg" height="487.0" width="514.0"><desc>{"leftTopX": 6695, "leftTopY": 6939, "rightBottomX": 7209, "rightBottomY": 7386}</desc><g transform="translate(0.5,0.5)"><g class="reference"><polyline fill="none" points="120.0,119.0 120.0,278.0" stroke="#000000" stroke-linejoin="miter"/><g class="cardinality"><line stroke="#000000" stroke-width="1.0" x1="120.0" x2="114.0" y1="238.0" y2="253.0"/><line stroke="#000000" stroke-width="1.0" x1="120.0" x2="126.0" y1="238.0" y2="253.0"/><line stroke="#000000" stroke-width="1.0" x1="114.0" x2="126.0" y1="238.0" y2="238.0"/></g><g class="mandatory"><line stroke="#000000" stroke-width="1.0" x1="114.0" x2="126.0" y1="160.0" y2="160.0"/></g></g><g class="reference"><polyline fill="none" points="337.0,242.0 276.0,242.0 276.0,290.0 214.0,290.0" stroke="#000000" stroke-linejoin="miter"/><g class="cardinality"><line stroke="#000000" stroke-width="1.0" x1="261.0" x2="246.0" y1="290.0" y2="284.0"/><line stroke="#000000" stroke-width="1.0" x1="261.0" x2="246.0" y1="290.0" y2="296.0"/><line stroke="#000000" stroke-width="1.0" x1="261.0" x2="261.0" y1="284.0" y2="296.0"/></g><g class="mandatory"><line stroke="#000000" stroke-width="1.0" x1="276.0" x2="276.0" y1="236.0" y2="248.0"/></g></g><g class="table" transform="translate(254.0,20.0)"><g transform="translate(0.0,0.0)"><rect fill="#f0f0f0" height="20.0" width="196.0"/></g><g transform="translate(0.0,0.0)"><text fill="black" font-family="arial, sans-serif" font-size="12" font-weight="700" text-anchor="middle" x="99.0" y="14.190625">users</text></g><g transform="translate(0.0,20.0)"><rect fill="#ffffff" height="67.0" width="196.0"/><g transform="translate(4.0,3.0)"><g transform="translate(0.0,0.0)"><text fill="black" font-family="arial, sans-serif" font-size="12" font-weight="400" x="1.0" y="11.138671875">id</text></g><g transform="translate(0.0,14.0)"><text fill="black" font-family="arial, sans-serif" font-size="12" font-weight="400" x="1.0" y="11.138671875">username</text></g><g transform="translate(0.0,28.0)"><text fill="black" font-family="arial, sans-serif" font-size="12" font-weight="400" x="1.0" y="11.138671875">password</text></g><g transform="translate(0.0,42.0)"><text fill="black" font-family="arial, sans-serif" font-size="12" font-weight="400" x="1.0" y="11.138671875">role</text></g></g><g transform="translate(129.75,3.0)"><g transform="translate(0.0,0.0)"><text fill="black" font-family="arial, sans-serif" font-size="12" font-weight="400" x="1.0" y="11.138671875">integer</text></g><g transform="translate(0.0,14.0)"><text fill="black" font-family="arial, sans-serif" font-size="12" font-weight="400" x="1.0" y="11.138671875">text</text></g><g transform="translate(0.0,28.0)"><text fill="black" font-family="arial, sans-serif" font-size="12" font-weight="400" x="1.0" y="11.138671875">text</text></g><g transform="translate(0.0,42.0)"><text fill="black" font-family="arial, sans-serif" font-size="12" font-weight="400" x="1.0" y="11.138671875">text</text></g></g><g transform="translate(176.75,3.0)"><g transform="translate(0.0,0.0)"><text fill="black" font-family="arial, sans-serif" font-size="12" font-weight="400" x="1.0" y="11.138671875">PK</text></g><g transform="translate(0.0,14.0)"><text fill="black" font-family="arial, sans-serif" font-size="12" font-weight="400" x="1.0" y="11.138671875"/></g><g transform="translate(0.0,28.0)"><text fill="black" font-family="arial, sans-serif" font-size="12" font-weight="400" x="1.0" y="11.138671875"/></g><g transform="translate(0.0,42.0)"><text fill="black" font-family="arial, sans-serif" font-size="12" font-weight="400" x="1.0" y="11.138671875"/></g></g></g><polyline fill="none" points="0.0,20.0 0.0,0.0 196.0,0.0 196.0,20.0 0.0,20.0 0.0,87.0 196.0,87.0 196.0,20.0" stroke="#000000" stroke-linejoin="miter"/></g><g class="table" transform="translate(278.0,158.0)"><g transform="translate(0.0,0.0)"><rect fill="#f0f0f0" height="20.0" width="216.0"/></g><g transform="translate(0.0,0.0)"><text fill="black" font-family="arial, sans-serif" font-size="12" font-weight="700" text-anchor="middle" x="109.0" y="14.190625">cars</text></g><g transform="translate(0.0,20.0)"><rect fill="#ffffff" height="82.0" width="216.0"/><g transform="translate(4.0,3.0)"><g transform="translate(0.0,0.0)"><text fill="black" font-family="arial, sans-serif" font-size="12" font-weight="400" x="1.0" y="11.138671875">id</text></g><g transform="translate(0.0,14.0)"><text fill="black" font-family="arial, sans-serif" font-size="12" font-weight="400" x="1.0" y="11.138671875">car_number</text></g><g transform="translate(0.0,28.0)"><text fill="black" font-family="arial, sans-serif" font-size="12" font-weight="400" x="1.0" y="11.138671875">brand</text></g><g transform="translate(0.0,42.0)"><text fill="black" font-family="arial, sans-serif" font-size="12" font-weight="400" x="1.0" y="11.138671875">mileage</text></g><g transform="translate(0.0,56.0)"><text fill="black" font-family="arial, sans-serif" font-size="12" font-weight="400" x="1.0" y="11.138671875">load_capacity</text></g></g><g transform="translate(149.75,3.0)"><g transform="translate(0.0,0.0)"><text fill="black" font-family="arial, sans-serif" font-size="12" font-weight="400" x="1.0" y="11.138671875">integer</text></g><g transform="translate(0.0,14.0)"><text fill="black" font-family="arial, sans-serif" font-size="12" font-weight="400" x="1.0" y="11.138671875">text</text></g><g transform="translate(0.0,28.0)"><text fill="black" font-family="arial, sans-serif" font-size="12" font-weight="400" x="1.0" y="11.138671875">text</text></g><g transform="translate(0.0,42.0)"><text fill="black" font-family="arial, sans-serif" font-size="12" font-weight="400" x="1.0" y="11.138671875">integer</text></g><g transform="translate(0.0,56.0)"><text fill="black" font-family="arial, sans-serif" font-size="12" font-weight="400" x="1.0" y="11.138671875">real</text></g></g><g transform="translate(196.75,3.0)"><g transform="translate(0.0,0.0)"><text fill="black" font-family="arial, sans-serif" font-size="12" font-weight="400" x="1.0" y="11.138671875">PK</text></g><g transform="translate(0.0,14.0)"><text fill="black" font-family="arial, sans-serif" font-size="12" font-weight="400" x="1.0" y="11.138671875"/></g><g transform="translate(0.0,28.0)"><text fill="black" font-family="arial, sans-serif" font-size="12" font-weight="400" x="1.0" y="11.138671875"/></g><g transform="translate(0.0,42.0)"><text fill="black" font-family="arial, sans-serif" font-size="12" font-weight="400" x="1.0" y="11.138671875"/></g><g transform="translate(0.0,56.0)"><text fill="black" font-family="arial, sans-serif" font-size="12" font-weight="400" x="1.0" y="11.138671875"/></g></g></g><polyline fill="none" points="0.0,20.0 0.0,0.0 216.0,0.0 216.0,20.0 0.0,20.0 0.0,102.0 216.0,102.0 216.0,20.0" stroke="#000000" stroke-linejoin="miter"/></g><g class="table" transform="translate(28.0,29.0)"><g transform="translate(0.0,0.0)"><rect fill="#f0f0f0" height="20.0" width="202.0"/></g><g transform="translate(0.0,0.0)"><text fill="black" font-family="arial, sans-serif" font-size="12" font-weight="700" text-anchor="middle" x="102.0" y="14.190625">drivers</text></g><g transform="translate(0.0,20.0)"><rect fill="#ffffff" height="96.0" width="202.0"/><g transform="translate(4.0,3.0)"><g transform="translate(0.0,0.0)"><text fill="black" font-family="arial, sans-serif" font-size="12" font-weight="400" x="1.0" y="11.138671875">id</text></g><g transform="translate(0.0,14.0)"><text fill="black" font-family="arial, sans-serif" font-size="12" font-weight="400" x="1.0" y="11.138671875">full_name</text></g><g transform="translate(0.0,28.0)"><text fill="black" font-family="arial, sans-serif" font-size="12" font-weight="400" x="1.0" y="11.138671875">category</text></g><g transform="translate(0.0,42.0)"><text fill="black" font-family="arial, sans-serif" font-size="12" font-weight="400" x="1.0" y="11.138671875">experience</text></g><g transform="translate(0.0,56.0)"><text fill="black" font-family="arial, sans-serif" font-size="12" font-weight="400" x="1.0" y="11.138671875">address</text></g><g transform="translate(0.0,70.0)"><text fill="black" font-family="arial, sans-serif" font-size="12" font-weight="400" x="1.0" y="11.138671875">birth_year</text></g></g><g transform="translate(135.75,3.0)"><g transform="translate(0.0,0.0)"><text fill="black" font-family="arial, sans-serif" font-size="12" font-weight="400" x="1.0" y="11.138671875">integer</text></g><g transform="translate(0.0,14.0)"><text fill="black" font-family="arial, sans-serif" font-size="12" font-weight="400" x="1.0" y="11.138671875">text</text></g><g transform="translate(0.0,28.0)"><text fill="black" font-family="arial, sans-serif" font-size="12" font-weight="400" x="1.0" y="11.138671875">text</text></g><g transform="translate(0.0,42.0)"><text fill="black" font-family="arial, sans-serif" font-size="12" font-weight="400" x="1.0" y="11.138671875">integer</text></g><g transform="translate(0.0,56.0)"><text fill="black" font-family="arial, sans-serif" font-size="12" font-weight="400" x="1.0" y="11.138671875">text</text></g><g transform="translate(0.0,70.0)"><text fill="black" font-family="arial, sans-serif" font-size="12" font-weight="400" x="1.0" y="11.138671875">integer</text></g></g><g transform="translate(182.75,3.0)"><g transform="translate(0.0,0.0)"><text fill="black" font-family="arial, sans-serif" font-size="12" font-weight="400" x="1.0" y="11.138671875">PK</text></g><g transform="translate(0.0,14.0)"><text fill="black" font-family="arial, sans-serif" font-size="12" font-weight="400" x="1.0" y="11.138671875"/></g><g transform="translate(0.0,28.0)"><text fill="black" font-family="arial, sans-serif" font-size="12" font-weight="400" x="1.0" y="11.138671875"/></g><g transform="translate(0.0,42.0)"><text fill="black" font-family="arial, sans-serif" font-size="12" font-weight="400" x="1.0" y="11.138671875"/></g><g transform="translate(0.0,56.0)"><text fill="black" font-family="arial, sans-serif" font-size="12" font-weight="400" x="1.0" y="11.138671875"/></g><g transform="translate(0.0,70.0)"><text fill="black" font-family="arial, sans-serif" font-size="12" font-weight="400" x="1.0" y="11.138671875"/></g></g></g><polyline fill="none" points="0.0,20.0 0.0,0.0 202.0,0.0 202.0,20.0 0.0,20.0 0.0,116.0 202.0,116.0 202.0,20.0" stroke="#000000" stroke-linejoin="miter"/></g><g class="table" transform="translate(20.0,253.0)"><g transform="translate(0.0,0.0)"><rect fill="#f0f0f0" height="20.0" width="226.0"/></g><g transform="translate(0.0,0.0)"><text fill="black" font-family="arial, sans-serif" font-size="12" font-weight="700" text-anchor="middle" x="114.0" y="14.190625">orders</text></g><g transform="translate(0.0,20.0)"><rect fill="#ffffff" height="154.0" width="226.0"/><g transform="translate(4.0,3.0)"><g transform="translate(0.0,0.0)"><text fill="black" font-family="arial, sans-serif" font-size="12" font-weight="400" x="1.0" y="11.138671875">id</text></g><g transform="translate(0.0,14.0)"><text fill="black" font-family="arial, sans-serif" font-size="12" font-weight="400" x="1.0" y="11.138671875">order_date</text></g><g transform="translate(0.0,28.0)"><text fill="black" font-family="arial, sans-serif" font-size="12" font-weight="400" x="1.0" y="11.138671875">driver_id</text></g><g transform="translate(0.0,42.0)"><text fill="black" font-family="arial, sans-serif" font-size="12" font-weight="400" x="1.0" y="11.138671875">car_id</text></g><g transform="translate(0.0,56.0)"><text fill="black" font-family="arial, sans-serif" font-size="12" font-weight="400" x="1.0" y="11.138671875">distance</text></g><g transform="translate(0.0,70.0)"><text fill="black" font-family="arial, sans-serif" font-size="12" font-weight="400" x="1.0" y="11.138671875">cargo_weight</text></g><g transform="translate(0.0,84.0)"><text fill="black" font-family="arial, sans-serif" font-size="12" font-weight="400" x="1.0" y="11.138671875">cost</text></g><g transform="translate(0.0,98.0)"><text fill="black" font-family="arial, sans-serif" font-size="12" font-weight="400" x="1.0" y="11.138671875">driver_earnings</text></g><g transform="translate(0.0,112.0)"><text fill="black" font-family="arial, sans-serif" font-size="12" font-weight="400" x="1.0" y="11.138671875">drivers_id</text></g><g transform="translate(0.0,126.0)"><text fill="black" font-family="arial, sans-serif" font-size="12" font-weight="400" x="1.0" y="11.138671875">cars_id</text></g></g><g transform="translate(159.75,3.0)"><g transform="translate(0.0,0.0)"><text fill="black" font-family="arial, sans-serif" font-size="12" font-weight="400" x="1.0" y="11.138671875">integer</text></g><g transform="translate(0.0,14.0)"><text fill="black" font-family="arial, sans-serif" font-size="12" font-weight="400" x="1.0" y="11.138671875">text</text></g><g transform="translate(0.0,28.0)"><text fill="black" font-family="arial, sans-serif" font-size="12" font-weight="400" x="1.0" y="11.138671875">integer</text></g><g transform="translate(0.0,42.0)"><text fill="black" font-family="arial, sans-serif" font-size="12" font-weight="400" x="1.0" y="11.138671875">integer</text></g><g transform="translate(0.0,56.0)"><text fill="black" font-family="arial, sans-serif" font-size="12" font-weight="400" x="1.0" y="11.138671875">integer</text></g><g transform="translate(0.0,70.0)"><text fill="black" font-family="arial, sans-serif" font-size="12" font-weight="400" x="1.0" y="11.138671875">real</text></g><g transform="translate(0.0,84.0)"><text fill="black" font-family="arial, sans-serif" font-size="12" font-weight="400" x="1.0" y="11.138671875">real</text></g><g transform="translate(0.0,98.0)"><text fill="black" font-family="arial, sans-serif" font-size="12" font-weight="400" x="1.0" y="11.138671875">real</text></g><g transform="translate(0.0,112.0)"><text fill="black" font-family="arial, sans-serif" font-size="12" font-weight="400" x="1.0" y="11.138671875">integer</text></g><g transform="translate(0.0,126.0)"><text fill="black" font-family="arial, sans-serif" font-size="12" font-weight="400" x="1.0" y="11.138671875">integer</text></g></g><g transform="translate(206.75,3.0)"><g transform="translate(0.0,0.0)"><text fill="black" font-family="arial, sans-serif" font-size="12" font-weight="400" x="1.0" y="11.138671875">PK</text></g><g transform="translate(0.0,14.0)"><text fill="black" font-family="arial, sans-serif" font-size="12" font-weight="400" x="1.0" y="11.138671875"/></g><g transform="translate(0.0,28.0)"><text fill="black" font-family="arial, sans-serif" font-size="12" font-weight="400" x="1.0" y="11.138671875"/></g><g transform="translate(0.0,42.0)"><text fill="black" font-family="arial, sans-serif" font-size="12" font-weight="400" x="1.0" y="11.138671875"/></g><g transform="translate(0.0,56.0)"><text fill="black" font-family="arial, sans-serif" font-size="12" font-weight="400" x="1.0" y="11.138671875"/></g><g transform="translate(0.0,70.0)"><text fill="black" font-family="arial, sans-serif" font-size="12" font-weight="400" x="1.0" y="11.138671875"/></g><g transform="translate(0.0,84.0)"><text fill="black" font-family="arial, sans-serif" font-size="12" font-weight="400" x="1.0" y="11.138671875"/></g><g transform="translate(0.0,98.0)"><text fill="black" font-family="arial, sans-serif" font-size="12" font-weight="400" x="1.0" y="11.138671875"/></g><g transform="translate(0.0,112.0)"><text fill="black" font-family="arial, sans-serif" font-size="12" font-weight="400" x="1.0" y="11.138671875">FK</text></g><g transform="translate(0.0,126.0)"><text fill="black" font-family="arial, sans-serif" font-size="12" font-weight="400" x="1.0" y="11.138671875">FK</text></g></g></g><polyline fill="none" points="0.0,20.0 0.0,0.0 226.0,0.0 226.0,20.0 0.0,20.0 0.0,174.0 226.0,174.0 226.0,20.0" stroke="#000000" stroke-linejoin="miter"/></g><g transform="translate(338.0,437.0)"><svg height="40" width="166"><svg viewBox="0 0 487.7 116.5" xmlns="http://www.w3.org/2000/svg"><path d="m62.911873 72.656224c-1.403596.0037-2.747938-.555513-3.736751-1.54803-2.066508-2.062805-2.066508-5.410696 0-7.473501l25.753583-25.757286v-26.849795c-7.517943-5.4032902-23.727812-9.1622615-42.289353-9.1622615s-34.7714104 3.7589713-42.289353 9.1622615v25.027712l8.2327027-8.232703c2.0628053-2.062805 5.4106963-2.062805 7.4772053 0 2.062805 2.066509 2.062805 5.4144 0 7.477205l-14.6322128 14.632213c-.3221975.322197-.68513268.59625-1.0776952.825862v54.714329c7.5179426 5.40329 23.727812 9.16226 42.289353 9.16226s34.77141-3.75897 42.289353-9.16226v-52.640413l-18.280081 18.280081c-.988813.992516-2.336858 1.548029-3.736751 1.548029zm-3.688606-37.874877 6.962429-6.958726c2.062805-2.066508 5.410697-2.066508 7.473502 0 2.062805 2.062805 2.062805 5.410697 0 7.473502l-6.958726 6.962429c-.988813.992517-2.336858 1.54803-3.740454 1.54803-1.399893 0-2.747938-.555513-3.736751-1.54803-2.062805-2.066508-2.062805-5.4144 0-7.477205zm-34.975099 6.177305 13.136031-13.136031c2.062805-2.062805 5.410697-2.062805 7.473502 0 2.066508 2.066509 2.066508 5.4144 0 7.477205l-13.132328 13.132328c-.988813.992516-2.336858 1.551733-3.736751 1.548029-1.403596.0037-2.747937-.555513-3.73675-1.548029-2.066509-2.062805-2.066509-5.410697 0-7.473502zm-4.792225 19.742932-3.629352 3.629352c-.988813.992516-2.336858 1.551733-3.736751 1.548029-1.403596.0037-2.7479372-.555513-3.7367504-1.548029-2.0665083-2.062805-2.0665083-5.410697 0-7.473502l3.6293514-3.629352c2.062805-2.066508 5.410697-2.066508 7.473502 0 2.066508 2.062805 2.066508 5.410697 0 7.473502zm7.032794 19.579982c-1.403596.0037-2.747937-.555513-3.73675-1.54803-2.066509-2.062805-2.066509-5.410697 0-7.473502l24.21296-24.216663c2.062804-2.062805 5.410696-2.062805 7.477205 0 2.062804 2.062805 2.062804 5.410697 0 7.477205l-24.216664 24.21296c-.988813.992517-2.336858 1.551733-3.736751 1.54803zm28.131179 2.85904-9.991827 9.991827c-.988814.992517-2.336859 1.551733-3.736751 1.54803-1.403596.0037-2.747938-.555513-3.736751-1.54803-2.066508-2.062805-2.066508-5.410697 0-7.477205l9.988124-9.988124c2.066508-2.066508 5.4144-2.066508 7.477205 0 2.062805 2.062805 2.062805 5.410697 0 7.473502z" fill="#c00"/><path d="m106.02709 93.110212c-.79253-2.047991-.79253-4.162644-.79253-6.277296v-34.689936c0-2.114652 0-4.229305.79253-6.277296 4.82185-.859194 10.04367-1.455445 15.19883-1.455445 7.86237 0 15.52844 1.322121 21.14283 4.825557 2.31093 5.151457 2.97385 13.480449 3.17013 20.154011-.19628 6.869844-.8592 15.195133-3.17013 20.350293-5.68105 3.503436-13.41379 4.821853-21.27615 4.821853-5.15516 0-10.37328-.592547-15.06551-1.451741zm29.80142-8.191965c1.25546-4.099686 1.58506-10.043675 1.71839-15.52844-.13333-5.288483-.46293-11.232472-1.71839-15.332158-3.63676-2.047992-8.6586-2.773862-13.54711-2.773862-3.10717 0-6.21064.262943-8.9882.72587v34.956582c2.84423.462927 5.88103.792532 8.9882.792532 4.95518 0 9.91035-.792532 13.54711-2.844227zm14.93219-1.85171v-2.57758c0-5.021837.19628-12.95086 2.31093-17.972697 4.89222-2.377596 9.05486-3.436774 13.01752-3.436774 8.52528 0 15.2655 2.247976 15.2655 11.628739v13.943376c0 3.633055-.26664 7.069829-.52959 9.184482-.99251.266646-1.848.396266-2.77386.396266-.99252 0-1.98503-.12962-3.24049-.396266l-.59255-3.236789c-2.37759 2.444257-6.6069 3.962659-11.03619 3.962659-4.42559 0-12.42127-1.914668-12.42127-11.495416zm22.99453 1.651726v-17.313489c-1.5184-1.255459-4.62557-1.848006-7.73274-1.848006-3.10346 0-6.27729.592547-7.7957 1.848006v18.63561c1.65173 1.322121 3.83304 1.914668 6.08102 1.914668 3.30345 0 6.86984-1.25546 9.44742-3.236789zm12.94716-.596251v-22.135341c0-3.103466 0-6.606902.72957-9.777029 1.05548-.333308 2.18132-.529589 3.37012-.529589 1.05547 0 2.17761.196281 3.37011.462927v8.458612h8.58823c.3296 1.055474.52959 2.114653.52959 3.170127 0 1.122136-.19999 2.181315-.52959 3.236789h-8.58823v16.717238c0 4.162644 2.44426 5.551427 7.13649 5.551427.92215 0 1.91467-.06666 3.0368-.133323 0 0 .72958.462927.99252 1.985033.0667.462927.13332.792532.13332 1.122136 0 .859193-.19998 1.322121-.19998 1.322121-1.05548.462927-3.50344 1.388782-7.7957 1.388782-3.69972 0-10.77325-1.718386-10.77325-10.83991zm21.8724-1.055475v-2.57758c0-5.021837.19998-12.95086 2.31464-17.972697 4.88851-2.377596 9.05115-3.436774 13.01752-3.436774 8.52157 0 15.26179 2.247976 15.26179 11.628739v13.943376c0 3.633055-.26294 7.069829-.52959 9.184482-.98881.266646-1.848.396266-2.77386.396266-.99252 0-1.98133-.12962-3.23679-.396266l-.59625-3.236789c-2.37759 2.444257-6.6069 3.962659-11.03249 3.962659-4.42929 0-12.42497-1.914668-12.42497-11.495416zm22.99453 1.651726v-17.313489c-1.5184-1.255459-4.62557-1.848006-7.72903-1.848006-3.10717 0-6.2773.592547-7.79941 1.848006v18.63561c1.65173 1.322121 3.83304 1.914668 6.08102 1.914668 3.30345 0 6.86984-1.25546 9.44742-3.236789zm28.60892 9.11782c-.79253-2.047991-.79253-4.095983-.79253-6.143974v-34.360331c0-2.840523 0-5.614384.79253-8.325288 1.45545-.199985 2.51092-.329604 3.50344-.329604 1.05547 0 2.04799.129619 3.37011.329604l14.73591 24.116671 14.4026-24.116671c1.32212-.199985 2.31464-.329604 3.37011-.329604.99252 0 2.04799.129619 3.50344.329604.72587 2.047991.72587 4.095983.72587 6.210635v34.360331c0 2.773862 0 5.551427-.72587 8.258627-1.26657.225908-2.54796.337011-3.83304.333308-1.05548 0-2.11466-.06666-3.43678-.333308l-.0667-35.349144-12.22128 21.142825c-.46293.199984-1.12584.266646-1.78505.266646-.66292 0-1.32212-.06666-1.85171-.266646l-12.42123-21.276148v35.482467c-1.25546.266646-2.31094.333308-3.43678.333308-1.28508.0037-2.56647-.1074-3.83304-.333308zm50.41836-10.506603v-2.840523c0-5.021837.19628-12.95086 2.31094-17.972697 4.89221-2.377596 9.05486-3.436774 13.01752-3.436774 8.52527 0 15.2655 2.247976 15.2655 11.628739v2.777565c0 1.585064 0 12.287947-2.18132 17.906036-3.76638 2.314637-8.06234 3.570096-13.08418 3.570096-8.25863 0-15.32846-1.985033-15.32846-11.632442zm22.99454 3.303451v-19.291115c-1.58507-1.255459-4.62557-1.85171-7.73274-1.85171-3.10347 0-6.07732.596251-7.72904 1.85171v19.291115c1.5184 1.192501 4.62557 1.85171 7.72904 1.85171 3.10717 0 6.21434-.659209 7.73274-1.85171zm12.55459-3.303451v-4.888514c.0667-4.692233.46293-11.562077 2.31094-15.924706 4.82555-2.377596 8.9882-3.436774 12.95086-3.436774 3.10716 0 5.88103.462928 7.73274 1.85171v-15.858044c1.25546-.266647 2.37759-.396266 3.43677-.396266 1.05547 0 2.11465.129619 3.37011.396266.72587 2.510918.72587 5.021837.72587 7.532756v21.342809c0 2.114653-.0667 12.158328-2.18131 17.443109-3.69972 2.314637-8.06235 3.570096-13.08418 3.570096-8.19197 0-15.2618-1.985033-15.2618-11.632442zm22.99454 3.303451v-19.228157c-1.58507-1.255459-4.69224-1.914668-7.7957-1.914668-3.10717 0-6.14768.659209-7.73274 1.914668v19.228157c1.5184 1.255459 4.69223 1.85171 7.7994 1.85171 3.10346 0 6.21063-.596251 7.72904-1.85171zm13.01381-3.303451v-4.492248c0-4.758895.92586-11.695401 2.84423-16.187649 4.42559-2.381299 8.72155-3.570097 12.68421-3.570097 8.59194 0 14.73591 2.644242 14.73591 11.628739 0 2.314637-.59625 7.006871-1.58506 9.451128-2.90719.329604-6.87355.792532-10.63993.792532-2.77386 0-7.26611-.133324-10.5066-.725871v2.907185c0 5.151457 5.02184 5.418103 9.25114 5.418103 2.97385 0 7.26982-.529589 10.63993-1.718386.92585 1.188797 1.32212 2.444257 1.32212 3.766378 0 .329604 0 .72587-.0667 1.055474-3.76638 2.114653-8.19567 3.303451-13.21751 3.303451-8.19196 0-15.46178-1.98133-15.46178-11.628739zm22.46865-8.654892c.39627-1.25546.52589-2.510919.52589-3.766378 0-4.492249-3.69972-5.351442-7.53276-5.351442-2.24427 0-4.35892.592547-6.54024 1.718387-.65921 1.981329-1.12213 4.755191-1.25546 7.199448 2.97385.796235 5.41811.796235 7.92903.796235 2.90718 0 5.02183-.199984 6.87354-.59625zm14.13966 19.161495c-.3296-2.244273-.39627-4.492249-.39627-6.740225v-35.152862c0-2.310934 0-4.625572.72587-6.869844 1.25546-.266647 2.18132-.329605 3.10717-.329605.8592 0 1.78135.06296 3.03681.329605.66291 2.244272.66291 4.625571.66291 6.936505v35.01954c0 2.181314.0667 4.229305-.39627 6.806886-.99251.266646-2.11465.396266-3.24049.396266-1.1888 0-2.37759-.12962-3.49973-.396266zm13.61007-10.506603v-4.492248c0-4.758895.92585-11.695401 2.84423-16.187649 4.42558-2.381299 8.72155-3.570097 12.68421-3.570097 8.59193 0 14.73591 2.644242 14.73591 11.628739 0 2.314637-.59625 7.006871-1.58507 9.451128-2.90718.329604-6.87354.792532-10.63992.792532-2.77386 0-7.26611-.133324-10.5066-.725871v2.907185c0 5.151457 5.02183 5.418103 9.25114 5.418103 2.97384 0 7.26981-.529589 10.63992-1.718386.92586 1.188797 1.32213 2.444257 1.32213 3.766378 0 .329604 0 .72587-.0667 1.055474-3.76637 2.114653-8.19566 3.303451-13.2175 3.303451-8.19197 0-15.46178-1.98133-15.46178-11.628739zm22.46865-8.654892c.39626-1.25546.52588-2.510919.52588-3.766378 0-4.492249-3.69971-5.351442-7.53275-5.351442-2.24427 0-4.35893.592547-6.54024 1.718387-.65921 1.981329-1.12214 4.755191-1.25546 7.199448 2.97384.796235 5.4181.796235 7.92902.796235 2.90719 0 5.02184-.199984 6.87355-.59625zm13.34712 19.161495c-.72957-2.114653-.72957-4.229306-.72957-6.406917v-6.806886c0-5.021837.13332-13.017521 2.31464-18.039359 4.29596-2.114652 8.78821-3.370112 13.67673-3.370112 1.25546 0 2.51092.133323 3.76638.262943.0667.596251.13332 1.12584.13332 1.651725 0 1.718387-.39627 3.303451-1.32212 4.758895-.91845-.133323-1.84801-.199985-2.77386-.199985-2.31464 0-4.62558.462928-6.94021 1.455444-1.1888 3.699717-1.32212 9.514086-1.32212 12.754579v13.939673c-1.1888.199984-2.17761.329604-3.23679.329604-1.05548 0-2.11466-.12962-3.5664-.329604zm-362.62407-60.40278c-.3296-.96289-.3296-1.922075-.3296-2.914592v-3.092356c0-2.281306.0592-5.914361 1.04806-8.195668 1.95541-.959186 3.99599-1.529513 6.21434-1.529513.57033 0 1.14066.05925 1.71098.122213.0333.27035.0593.511072.0593.748091 0 .781422-.17777 1.499885-.59996 2.162797-.41848-.05925-.83697-.08888-1.25916-.09258-1.05177 0-2.09984.211095-3.15161.662912-.5407 1.681353-.60366 4.321891-.60366 5.792149v6.332848c-.53699.09259-.98881.15184-1.47025.15184-.48145 0-.95919-.05925-1.6221-.15184zm9.75481-4.773709v-2.044288c0-2.159094.42219-5.310704 1.29249-7.351288 2.01096-1.081399 3.96266-1.622098 5.76252-1.622098 3.90341 0 6.69208 1.199908 6.69208 5.28478 0 1.048068-.27035 3.181238-.71846 4.292264-1.32212.148137-3.12198.359232-4.83296.359232-1.25916 0-3.29975-.05925-4.77371-.329605v1.322121c0 2.340562 2.28131 2.462774 4.20338 2.462774 1.35175 0 3.30345-.240722 4.83296-.781421.41849.540699.59996 1.111026.59996 1.71098 0 .15184 0 .333308-.0296.481444-1.71098.959186-3.72194 1.499886-6.00324 1.499886-3.72194 0-7.02539-.899932-7.02539-5.284781zm10.20662-3.933032c.18147-.570327.24073-1.140653.24073-1.714683 0-2.040585-1.68136-2.429444-3.42196-2.429444-1.02215 0-1.98504.27035-2.97385.777718-.29998.903635-.51107 2.162798-.57033 3.273824 1.35175.362935 2.46278.362935 3.60343.362935 1.32212 0 2.28131-.09259 3.12198-.27035zm5.52551 3.933032v-2.222052c.0296-2.13317.20739-5.255153 1.04807-7.236482 2.19242-1.081399 4.08487-1.562844 5.88473-1.562844 1.411 0 2.67017.211095 3.51455.840677v-7.203152c.57032-.11851 1.08139-.181468 1.55914-.181468.48144 0 .96288.05926 1.53321.181468.32961 1.140653.32961 2.281306.32961 3.42196v9.695553c0 .96289-.0296 5.525503-.99252 7.925319-1.68135 1.051771-3.66268 1.622098-5.94399 1.622098-3.72194 0-6.9328-.899931-6.9328-5.28478zm10.44364 1.499885v-8.736367c-.71846-.570327-2.12946-.870304-3.54047-.870304-1.4073 0-2.79238.299977-3.51084.870304v8.736367c.68884.570327 2.12947.840677 3.54047.840677s2.82201-.27035 3.51084-.840677zm6.48469 8.765995c.14814-.959185.51107-1.892447 1.0814-2.581283 2.01096.811049 3.66268.929558 5.10331.929558 1.14066 0 2.31094-.207391 3.27383-.659209.27034-.688836.41848-2.310934.44811-3.540469-1.11103.536996-2.31094.870304-3.63306.870304-3.59972 0-6.81429-.903635-6.81429-5.284781 0-5.073685.24072-7.53646 1.05177-9.454831 2.22205-1.081399 4.1108-1.562843 5.91436-1.562843 3.87008 0 6.93281 1.01844 6.93281 5.28478v8.195669c-.0593 2.670165-.29998 5.373662-.95919 7.443874-1.49988.870303-3.30345 1.622098-6.18471 1.622098-2.31093 0-3.93303-.274053-6.21434-1.262867zm9.90665-8.765995v-8.736367c-.71846-.599955-2.09984-.870304-3.51455-.870304-1.411 0-2.8183.270349-3.57009.870304v8.736367c.75179.570327 2.12946.840677 3.51084.840677 1.47396 0 2.91089-.299977 3.5738-.840677zm5.55143-1.622098v-1.17028c0-2.285011.0926-5.884735 1.05177-8.166041 2.22205-1.081399 4.11079-1.562844 5.91436-1.562844 3.87007 0 6.9328 1.022144 6.9328 5.284781v6.336551c0 1.651726-.11851 3.207162-.24072 4.170051-.44812.11851-.84068.181468-1.25916.181468-.44812 0-.89994-.05926-1.47026-.181468l-.27035-1.470258c-1.0814 1.107323-3.00348 1.799863-5.01443 1.799863-2.01096 0-5.64401-.870304-5.64401-5.221823zm10.44734.751795v-7.866064c-.68883-.570327-2.09984-.840677-3.51454-.840677-1.41101 0-2.85164.27035-3.54047.840677v8.466018c.75179.599954 1.74431.870303 2.76275.870303 1.49988 0 3.12198-.570326 4.29226-1.473961zm5.88474-.27035v-10.058489c0-1.411003 0-3.003473.3296-4.444104.49626-.155543 1.01104-.237019 1.52951-.237019.48145 0 .99252.08888 1.53322.207392v3.84415h3.8997c.15184.481444.24072.959186.24072 1.44063 0 .511072-.0889.992517-.24072 1.470258h-3.8997v7.595714c0 1.892448 1.10732 2.522029 3.24049 2.522029.42219 0 .87031-.02963 1.38138-.05925 0 0 .3296.207391.44811.899931.0333.211095.0593.362935.0593.511072 0 .388859-.0889.603657-.0889.603657-.48145.207392-1.59248.629582-3.54047.629582-1.68136 0-4.89593-.781422-4.89593-4.925549zm9.90665-.359232v-2.044288c0-2.159094.41848-5.310704 1.28879-7.351288 2.01095-1.081399 3.96266-1.622098 5.76622-1.622098 3.90341 0 6.69208 1.199908 6.69208 5.28478 0 1.048068-.27035 3.181238-.71846 4.292264-1.32212.148137-3.12199.359232-4.83297.359232-1.25916 0-3.30345-.05925-4.7737-.329605v1.322121c0 2.340562 2.2813 2.462774 4.20338 2.462774 1.34804 0 3.29975-.240722 4.83296-.781421.41849.540699.59996 1.111026.59996 1.71098 0 .15184 0 .333308-.0296.481444-1.71098.959186-3.72194 1.499886-6.00695 1.499886-3.72194 0-7.02168-.899932-7.02168-5.284781zm10.20292-3.933032c.18147-.570327.24072-1.140653.24072-1.714683 0-2.040585-1.68135-2.429444-3.42196-2.429444-1.02214 0-1.98133.27035-2.97385.777718-.29627.903635-.51107 2.162798-.57032 3.273824 1.35175.362935 2.46277.362935 3.60343.362935 1.32212 0 2.28501-.09259 3.12198-.27035z"/></svg></svg></g></g></svg>